ISO-10303-21;
HEADER;
FILE_DESCRIPTION(('ViewDefinition [CoordinationView]'),'2;1');
FILE_NAME('','2026-07-07T18:19:16',(''),(''),'IfcOpenShell 0.8.5-1c5b825','IfcOpenShell 0.8.5-1c5b825','');
FILE_SCHEMA(('IFC4'));
ENDSEC;
DATA;
#1=IFCPROJECT('3XbanVJGD13fm0XwpeQByP',$,'BIM_Demo',$,$,$,$,$,$);
#2=IFCSITE('1sH8hebu124BScp1ydnhEW',$,'Tuba Site',$,$,$,$,$,$,$,$,$,$,$);
#3=IFCBUILDING('2y6dJc7zT6nvXEs9D_ciTO',$,'Tuba Plant Section',$,$,$,$,$,$,$,$,$);
#4=IFCBUILDINGSTOREY('3Hh7Nb3ZL6ZBtuoPnxPuVt',$,'Ground Floor Level',$,$,$,$,$,$,$);
#5=IFCRELAGGREGATES('2eilpxtsP9Bf1WUrbRP7YH',$,$,$,#1,(#2));
#6=IFCRELAGGREGATES('0I1eR2PDXCpuT4wrxqokt3',$,$,$,#2,(#3));
#7=IFCRELAGGREGATES('1Easy5GeL1hxRbajW_3Hel',$,$,$,#3,(#4));
#8=IFCPIPESEGMENT('04U0_zLwPO0gZaMN9473CR',$,'pipe_str_0','Material: Steel, Section: DN100',$,#13,#29,$,$);
#9=IFCCARTESIANPOINT((0.,0.,0.));
#10=IFCDIRECTION((0.,0.,1.));
#11=IFCDIRECTION((1.,0.,0.));
#12=IFCAXIS2PLACEMENT3D(#9,#10,#11);
#13=IFCLOCALPLACEMENT($,#12);
#14=IFCPROPERTYSINGLEVALUE('SectionName',$,IFCLABEL('DN100'),$);
#15=IFCPROPERTYSINGLEVALUE('MaterialName',$,IFCLABEL('Steel'),$);
#16=IFCPROPERTYSINGLEVALUE('OuterDiameterM',$,IFCREAL(0.1143),$);
#17=IFCPROPERTYSINGLEVALUE('WallThicknessM',$,IFCREAL(0.0060000000000000001),$);
#18=IFCPROPERTYSET('2_cHZ8d110B9lYtdIFtNJn',$,'Pset_TubaPipe',$,(#14,#15,#16,#17));
#19=IFCRELDEFINESBYPROPERTIES('3waPeKVaf4gf$0TzKMFBry',$,$,$,(#8),#18);
#20=IFCCARTESIANPOINT((0.,0.,0.));
#21=IFCCARTESIANPOINT((3.,0.,0.));
#22=IFCPOLYLINE((#20,#21));
#23=IFCSWEPTDISKSOLID(#22,0.057149999999999999,0.051150000000000001,$,$);
#24=IFCCARTESIANPOINT((0.,0.,0.));
#25=IFCCARTESIANPOINT((3.,0.,0.));
#26=IFCPOLYLINE((#24,#25));
#27=IFCSHAPEREPRESENTATION(#1,'Axis','Curve3D',(#26));
#28=IFCSHAPEREPRESENTATION(#1,'Body','SweptSolid',(#23));
#29=IFCPRODUCTDEFINITIONSHAPE($,$,(#27,#28));
#30=IFCPIPEFITTING('1Ww93hPgZuu8rxMc_HHoKx',$,'pipe_bend_0','Material: Steel, Section: DN100',$,$,#60,$,.BEND.);
#31=IFCPROPERTYSINGLEVALUE('SectionName',$,IFCLABEL('DN100'),$);
#32=IFCPROPERTYSINGLEVALUE('MaterialName',$,IFCLABEL('Steel'),$);
#33=IFCPROPERTYSINGLEVALUE('OuterDiameterM',$,IFCREAL(0.1143),$);
#34=IFCPROPERTYSINGLEVALUE('WallThicknessM',$,IFCREAL(0.0060000000000000001),$);
#35=IFCPROPERTYSET('0nOx4QDGnCMukrs3tX_7I1',$,'Pset_TubaPipe',$,(#31,#32,#33,#34));
#36=IFCRELDEFINESBYPROPERTIES('2DtGCLeDjCdu3sRUFay5S8',$,$,$,(#30),#35);
#37=IFCCARTESIANPOINT((3.,0.,0.));
#38=IFCCARTESIANPOINT((3.0390180644032259,0.0038429439193539139,0.));
#39=IFCCARTESIANPOINT((3.0765366864730179,0.015224093497742647,0.));
#40=IFCCARTESIANPOINT((3.1111140466039204,0.033706077539490953,0.));
#41=IFCCARTESIANPOINT((3.1414213562373097,0.05857864376269048,0.));
#42=IFCCARTESIANPOINT((3.1662939224605089,0.088885953396079548,0.));
#43=IFCCARTESIANPOINT((3.1847759065022574,0.12346331352698203,0.));
#44=IFCCARTESIANPOINT((3.1961570560806463,0.16098193559677434,0.));
#45=IFCCARTESIANPOINT((3.2000000000000002,0.20000000000000001,0.));
#46=IFCPOLYLINE((#37,#38,#39,#40,#41,#42,#43,#44,#45));
#47=IFCSWEPTDISKSOLID(#46,0.057149999999999999,0.051150000000000001,$,$);
#48=IFCCARTESIANPOINT((3.,0.,0.));
#49=IFCCARTESIANPOINT((3.0390180644032259,0.0038429439193539139,0.));
#50=IFCCARTESIANPOINT((3.0765366864730179,0.015224093497742647,0.));
#51=IFCCARTESIANPOINT((3.1111140466039204,0.033706077539490953,0.));
#52=IFCCARTESIANPOINT((3.1414213562373097,0.05857864376269048,0.));
#53=IFCCARTESIANPOINT((3.1662939224605089,0.088885953396079548,0.));
#54=IFCCARTESIANPOINT((3.1847759065022574,0.12346331352698203,0.));
#55=IFCCARTESIANPOINT((3.1961570560806463,0.16098193559677434,0.));
#56=IFCCARTESIANPOINT((3.2000000000000002,0.20000000000000001,0.));
#57=IFCPOLYLINE((#48,#49,#50,#51,#52,#53,#54,#55,#56));
#58=IFCSHAPEREPRESENTATION(#1,'Axis','Curve3D',(#57));
#59=IFCSHAPEREPRESENTATION(#1,'Body','SweptSolid',(#47));
#60=IFCPRODUCTDEFINITIONSHAPE($,$,(#58,#59));
#61=IFCPROPERTYSINGLEVALUE('BendRadiusM',$,IFCREAL(0.20000000000000001),$);
#62=IFCPROPERTYSINGLEVALUE('BendAngleDeg',$,IFCREAL(90.),$);
#63=IFCPROPERTYSET('3TaFQfpxL3g9DKO46UjSxv',$,'Pset_TubaPipeBend',$,(#61,#62));
#64=IFCRELDEFINESBYPROPERTIES('0qsXEzco112wL1i93g3n9h',$,$,$,(#30),#63);
#65=IFCPIPESEGMENT('10elvg6oBdQRu6kDpDt_S2',$,'pipe_str_1','Material: Steel, Section: DN100',$,$,#81,$,$);
#66=IFCPROPERTYSINGLEVALUE('SectionName',$,IFCLABEL('DN100'),$);
#67=IFCPROPERTYSINGLEVALUE('MaterialName',$,IFCLABEL('Steel'),$);
#68=IFCPROPERTYSINGLEVALUE('OuterDiameterM',$,IFCREAL(0.1143),$);
#69=IFCPROPERTYSINGLEVALUE('WallThicknessM',$,IFCREAL(0.0060000000000000001),$);
#70=IFCPROPERTYSET('2BMAZZ8ZbAwQWqDeTTnU2o',$,'Pset_TubaPipe',$,(#66,#67,#68,#69));
#71=IFCRELDEFINESBYPROPERTIES('0j4woxlHj9_gCCtBY69xYi',$,$,$,(#65),#70);
#72=IFCCARTESIANPOINT((3.2000000000000002,0.19999999999999998,0.));
#73=IFCCARTESIANPOINT((3.2000000000000006,2.2000000000000002,0.));
#74=IFCPOLYLINE((#72,#73));
#75=IFCSWEPTDISKSOLID(#74,0.057149999999999999,0.051150000000000001,$,$);
#76=IFCCARTESIANPOINT((3.2000000000000002,0.19999999999999998,0.));
#77=IFCCARTESIANPOINT((3.2000000000000006,2.2000000000000002,0.));
#78=IFCPOLYLINE((#76,#77));
#79=IFCSHAPEREPRESENTATION(#1,'Axis','Curve3D',(#78));
#80=IFCSHAPEREPRESENTATION(#1,'Body','SweptSolid',(#75));
#81=IFCPRODUCTDEFINITIONSHAPE($,$,(#79,#80));
#82=IFCRELCONTAINEDINSPATIALSTRUCTURE('07KdDh7Y1EvAl0HLK1D3uh',$,$,$,(#8,#30,#65),#4);
#83=IFCDISTRIBUTIONSYSTEM('0lVoKGhvaZSZWmLob5$fpx',$,'BIM_Demo',$,$,$,.NOTDEFINED.);
#84=IFCRELASSIGNSTOGROUP('0A5JzWN29EIxozRVY5_39m',$,'BIM_Demo pipe run',$,(#8,#30,#65),$,#83);
#85=IFCRELSERVICESBUILDINGS('0j$_MFmH114PFZhFaYT4h5',$,'BIM_Demo services',$,#83,(#4));
#86=IFCCARTESIANPOINT((0.,0.));
#87=IFCAXIS2PLACEMENT2D(#86,$);
#88=IFCMECHANICALFASTENER('3eEAjaQZPD5v0Ys2KF76Mj',$,'Support_N0_0','Type: anchor',$,$,#93,$,$,$,$);
#89=IFCRELCONTAINEDINSPATIALSTRUCTURE('3EU5u39iX6be6WG6STnFIK',$,$,$,(#88),#4);
#90=IFCCARTESIANPOINT((0.,0.,0.));
#91=IFCBOUNDINGBOX(#90,0.20000000000000001,0.20000000000000001,0.20000000000000001);
#92=IFCSHAPEREPRESENTATION(#1,'Box','BoundingBox',(#91));
#93=IFCPRODUCTDEFINITIONSHAPE($,$,(#92));
#94=IFCPROPERTYSINGLEVALUE('VerticalReaction_N',$,IFCREAL(1476.6400000000001),$);
#95=IFCPROPERTYSINGLEVALUE('LateralReaction_N',$,IFCREAL(-1.8910999999999998E-09),$);
#96=IFCPROPERTYSINGLEVALUE('AxialReaction_N',$,IFCREAL(2361.3299999999999),$);
#97=IFCPROPERTYSINGLEVALUE('TorsionalMoment_Nm',$,IFCREAL(5.5787399999999999E-10),$);
#98=IFCPROPERTYSINGLEVALUE('SupportType',$,IFCLABEL('anchor'),$);
#99=IFCPROPERTYSINGLEVALUE('FrictionCoefficient',$,IFCREAL(0.),$);
#100=IFCPROPERTYSET('3rGCLEbRHEJhsW$onLth5V',$,'Pset_TubaSupportForces',$,(#94,#95,#96,#97,#98,#99));
#101=IFCRELDEFINESBYPROPERTIES('1IxGc__vXCL9FwO5fcwxPR',$,$,$,(#88),#100);
#102=IFCMECHANICALFASTENER('2e_lto4jnB7vFImct6A9py',$,'Support_N3_1','Type: anchor',$,$,#107,$,$,$,$);
#103=IFCRELCONTAINEDINSPATIALSTRUCTURE('3$MHTs5rL7UvPuIw6L7dcg',$,$,$,(#102),#4);
#104=IFCCARTESIANPOINT((3.2000000000000006,2.2000000000000002,0.));
#105=IFCBOUNDINGBOX(#104,0.20000000000000001,0.20000000000000001,0.20000000000000001);
#106=IFCSHAPEREPRESENTATION(#1,'Box','BoundingBox',(#105));
#107=IFCPRODUCTDEFINITIONSHAPE($,$,(#106));
#108=IFCPROPERTYSINGLEVALUE('VerticalReaction_N',$,IFCREAL(-772.25099999999998),$);
#109=IFCPROPERTYSINGLEVALUE('LateralReaction_N',$,IFCREAL(-2.1893800000000001E-09),$);
#110=IFCPROPERTYSINGLEVALUE('AxialReaction_N',$,IFCREAL(-2361.3299999999999),$);
#111=IFCPROPERTYSINGLEVALUE('TorsionalMoment_Nm',$,IFCREAL(3.3929300000000002E-09),$);
#112=IFCPROPERTYSINGLEVALUE('SupportType',$,IFCLABEL('anchor'),$);
#113=IFCPROPERTYSINGLEVALUE('FrictionCoefficient',$,IFCREAL(0.),$);
#114=IFCPROPERTYSET('32qqbdqf5Cv9ddGrzo9wbC',$,'Pset_TubaSupportForces',$,(#108,#109,#110,#111,#112,#113));
#115=IFCRELDEFINESBYPROPERTIES('2_wEeS2Xn6oupqfzTXnxMk',$,$,$,(#102),#114);
#116=IFCPROPERTYSINGLEVALUE('SustainedStressRatio',$,IFCREAL(0.33147463314525294),$);
#117=IFCPROPERTYSINGLEVALUE('ExpansionStressRatio',$,IFCREAL(0.16625735342136541),$);
#118=IFCPROPERTYSINGLEVALUE('ComplianceVerdict',$,IFCLABEL('PASS'),$);
#119=IFCPROPERTYSINGLEVALUE('MaxStress_Pa',$,IFCREAL(41434329.143156618),$);
#120=IFCPROPERTYSET('1nGLbQFI11v8nBTr7ogiJX',$,'Pset_TubaStressAnalysis',$,(#116,#117,#118,#119));
#121=IFCRELDEFINESBYPROPERTIES('0I3kyzx0P6_PEtTQccURGz',$,$,$,(#8),#120);
#122=IFCPROPERTYSINGLEVALUE('SustainedStressRatio',$,IFCREAL(0.38564662851309722),$);
#123=IFCPROPERTYSINGLEVALUE('ExpansionStressRatio',$,IFCREAL(0.19908886576551346),$);
#124=IFCPROPERTYSINGLEVALUE('ComplianceVerdict',$,IFCLABEL('PASS'),$);
#125=IFCPROPERTYSINGLEVALUE('MaxStress_Pa',$,IFCREAL(48205828.564137153),$);
#126=IFCPROPERTYSET('02ckOj4Sr7JvLRy$urkm91',$,'Pset_TubaStressAnalysis',$,(#122,#123,#124,#125));
#127=IFCRELDEFINESBYPROPERTIES('2lDLdR7lr5$vPm1GgINck1',$,$,$,(#8),#126);
#128=IFCPROPERTYSINGLEVALUE('SustainedStressRatio',$,IFCREAL(0.47968023691813577),$);
#129=IFCPROPERTYSINGLEVALUE('ExpansionStressRatio',$,IFCREAL(0.25607893146553684),$);
#130=IFCPROPERTYSINGLEVALUE('ComplianceVerdict',$,IFCLABEL('PASS'),$);
#131=IFCPROPERTYSINGLEVALUE('MaxStress_Pa',$,IFCREAL(59960029.61476697),$);
#132=IFCPROPERTYSET('0mnxP3csPDYBEhmJ4w7a2v',$,'Pset_TubaStressAnalysis',$,(#128,#129,#130,#131));
#133=IFCRELDEFINESBYPROPERTIES('284VEDzNX6ewicLav2ZnUo',$,$,$,(#30),#132);
#134=IFCPROPERTYSINGLEVALUE('SustainedStressRatio',$,IFCREAL(0.4259851148832301),$);
#135=IFCPROPERTYSINGLEVALUE('ExpansionStressRatio',$,IFCREAL(0.2235364332625637),$);
#136=IFCPROPERTYSINGLEVALUE('ComplianceVerdict',$,IFCLABEL('PASS'),$);
#137=IFCPROPERTYSINGLEVALUE('MaxStress_Pa',$,IFCREAL(53248139.360403761),$);
#138=IFCPROPERTYSET('2W7ieQEJ9808E89d9YyiGs',$,'Pset_TubaStressAnalysis',$,(#134,#135,#136,#137));
#139=IFCRELDEFINESBYPROPERTIES('0buS44agb9xfxOOZOLOvXC',$,$,$,(#30),#138);
#140=IFCPROPERTYSINGLEVALUE('SustainedStressRatio',$,IFCREAL(0.3282277552356006),$);
#141=IFCPROPERTYSINGLEVALUE('ExpansionStressRatio',$,IFCREAL(0.16428954862763673),$);
#142=IFCPROPERTYSINGLEVALUE('ComplianceVerdict',$,IFCLABEL('PASS'),$);
#143=IFCPROPERTYSINGLEVALUE('MaxStress_Pa',$,IFCREAL(41028469.404450074),$);
#144=IFCPROPERTYSET('3iOn8ZqDzEXAoyx_TX8bLW',$,'Pset_TubaStressAnalysis',$,(#140,#141,#142,#143));
#145=IFCRELDEFINESBYPROPERTIES('0ODbz0LS57QBb0aoBvCPeM',$,$,$,(#65),#144);
#146=IFCPROPERTYSINGLEVALUE('SustainedStressRatio',$,IFCREAL(0.50529834367616322),$);
#147=IFCPROPERTYSINGLEVALUE('ExpansionStressRatio',$,IFCREAL(0.27160505677343227),$);
#148=IFCPROPERTYSINGLEVALUE('ComplianceVerdict',$,IFCLABEL('PASS'),$);
#149=IFCPROPERTYSINGLEVALUE('MaxStress_Pa',$,IFCREAL(63162292.959520407),$);
#150=IFCPROPERTYSET('3xPWgbCPT4XBa$zdtfaL$B',$,'Pset_TubaStressAnalysis',$,(#146,#147,#148,#149));
#151=IFCRELDEFINESBYPROPERTIES('179AzJ8zPFah2cotnPnhLZ',$,$,$,(#65),#150);
ENDSEC;
END-ISO-10303-21;
