ISO-10303-21;
HEADER;
FILE_DESCRIPTION(('ViewDefinition [CoordinationView]'),'2;1');
FILE_NAME('','2026-07-07T18:35:12',(''),(''),'IfcOpenShell 0.8.5-1c5b825','IfcOpenShell 0.8.5-1c5b825','');
FILE_SCHEMA(('IFC4'));
ENDSEC;
DATA;
#1=IFCPROJECT('2tB0aTG0z3rRxV_pIaEXlw',$,'Advanced_Industrial_Loop',$,$,$,$,$,$);
#2=IFCSITE('0oKZ9HB21DvflAiettSXkp',$,'Tuba Site',$,$,$,$,$,$,$,$,$,$,$);
#3=IFCBUILDING('0hch7$xiLFkQ16Uch7i4P2',$,'Tuba Plant Section',$,$,$,$,$,$,$,$,$);
#4=IFCBUILDINGSTOREY('2U8x0AoD5BoegdlAJCDuzD',$,'Ground Floor Level',$,$,$,$,$,$,$);
#5=IFCRELAGGREGATES('0Kr$kYlvT9QQ1tI59YDlpf',$,$,$,#1,(#2));
#6=IFCRELAGGREGATES('2S2pXgc395FRyY2QLuzR2y',$,$,$,#2,(#3));
#7=IFCRELAGGREGATES('2t$38AFIXA7vt3yYlaxnpE',$,$,$,#3,(#4));
#8=IFCPIPESEGMENT('04U0_zLwPO0gZaMN9473CR',$,'pipe_str_0','Material: S235JR, Section: 4inch_sch40',$,$,#24,$,$);
#9=IFCPROPERTYSINGLEVALUE('SectionName',$,IFCLABEL('4inch_sch40'),$);
#10=IFCPROPERTYSINGLEVALUE('MaterialName',$,IFCLABEL('S235JR'),$);
#11=IFCPROPERTYSINGLEVALUE('OuterDiameterM',$,IFCREAL(0.1143),$);
#12=IFCPROPERTYSINGLEVALUE('WallThicknessM',$,IFCREAL(0.0060200000000000002),$);
#13=IFCPROPERTYSET('3mYDbLYNb6ge9QCupTTbib',$,'Pset_TubaPipe',$,(#9,#10,#11,#12));
#14=IFCRELDEFINESBYPROPERTIES('1PgNH7eqT6P9yxd3KJTxe0',$,$,$,(#8),#13);
#15=IFCCARTESIANPOINT((0.,3.1143000000000001,0.));
#16=IFCCARTESIANPOINT((5.,3.1143000000000001,0.));
#17=IFCPOLYLINE((#15,#16));
#18=IFCSWEPTDISKSOLID(#17,0.057149999999999999,0.051130000000000002,$,$);
#19=IFCCARTESIANPOINT((0.,3.1143000000000001,0.));
#20=IFCCARTESIANPOINT((5.,3.1143000000000001,0.));
#21=IFCPOLYLINE((#19,#20));
#22=IFCSHAPEREPRESENTATION(#1,'Axis','Curve3D',(#21));
#23=IFCSHAPEREPRESENTATION(#1,'Body','SweptSolid',(#18));
#24=IFCPRODUCTDEFINITIONSHAPE($,$,(#22,#23));
#25=IFCPIPESEGMENT('10elvg6oBdQRu6kDpDt_S2',$,'pipe_str_1','Material: S235JR, Section: 4inch_sch40',$,$,#41,$,$);
#26=IFCPROPERTYSINGLEVALUE('SectionName',$,IFCLABEL('4inch_sch40'),$);
#27=IFCPROPERTYSINGLEVALUE('MaterialName',$,IFCLABEL('S235JR'),$);
#28=IFCPROPERTYSINGLEVALUE('OuterDiameterM',$,IFCREAL(0.1143),$);
#29=IFCPROPERTYSINGLEVALUE('WallThicknessM',$,IFCREAL(0.0060200000000000002),$);
#30=IFCPROPERTYSET('3uAf9rMtX3yOEIDTZiL0qq',$,'Pset_TubaPipe',$,(#26,#27,#28,#29));
#31=IFCRELDEFINESBYPROPERTIES('2o8wN83Lb9H9D0FNTxuJVZ',$,$,$,(#25),#30);
#32=IFCCARTESIANPOINT((5.,3.1143000000000001,0.));
#33=IFCCARTESIANPOINT((10.,3.1143000000000001,0.));
#34=IFCPOLYLINE((#32,#33));
#35=IFCSWEPTDISKSOLID(#34,0.057149999999999999,0.051130000000000002,$,$);
#36=IFCCARTESIANPOINT((5.,3.1143000000000001,0.));
#37=IFCCARTESIANPOINT((10.,3.1143000000000001,0.));
#38=IFCPOLYLINE((#36,#37));
#39=IFCSHAPEREPRESENTATION(#1,'Axis','Curve3D',(#38));
#40=IFCSHAPEREPRESENTATION(#1,'Body','SweptSolid',(#35));
#41=IFCPRODUCTDEFINITIONSHAPE($,$,(#39,#40));
#42=IFCRELCONTAINEDINSPATIALSTRUCTURE('3xOHPYVB1EjQAZQvAIV4Hy',$,$,$,(#8,#25),#4);
#43=IFCDISTRIBUTIONSYSTEM('0i7KtLvvtSUj4EBEV129Eb',$,'Advanced_Industrial_Loop',$,$,$,.NOTDEFINED.);
#44=IFCRELASSIGNSTOGROUP('3i5BRugpX2Ng0ax4shBjl5',$,'Advanced_Industrial_Loop pipe run',$,(#8,#25),$,#43);
#45=IFCRELSERVICESBUILDINGS('2zbeRnTVTBvQ6BWyznqapY',$,'Advanced_Industrial_Loop services',$,#43,(#4));
#46=IFCCARTESIANPOINT((0.,0.));
#47=IFCAXIS2PLACEMENT2D(#46,$);
#48=IFCCOLUMN('2wRO0p50L6AQ3zMcNiH67s',$,'col_1','Material: S235JR, Section: ColBox',$,#53,#63,$,$);
#49=IFCCARTESIANPOINT((5.,0.,-1.));
#50=IFCDIRECTION((0.,0.,1.));
#51=IFCDIRECTION((1.,0.,0.));
#52=IFCAXIS2PLACEMENT3D(#49,#50,#51);
#53=IFCLOCALPLACEMENT($,#52);
#54=IFCRELCONTAINEDINSPATIALSTRUCTURE('14yXVbBgPAyRpLiUolsRnl',$,$,$,(#48),#4);
#55=IFCCARTESIANPOINT((5.,0.,-1.));
#56=IFCDIRECTION((0.,1.,0.));
#57=IFCDIRECTION((-1.,0.,0.));
#58=IFCAXIS2PLACEMENT3D(#55,#56,#57);
#59=IFCDIRECTION((0.,0.,1.));
#60=IFCRECTANGLEHOLLOWPROFILEDEF(.AREA.,'ColBox',#47,0.20000000000000001,0.20000000000000001,0.0080000000000000002,$,$);
#61=IFCEXTRUDEDAREASOLID(#60,#58,#59,3.);
#62=IFCSHAPEREPRESENTATION(#1,'Body','SweptSolid',(#61));
#63=IFCPRODUCTDEFINITIONSHAPE($,$,(#62));
#64=IFCCOLUMN('3wsclHyyv5bvzmUMgHJdsO',$,'col_2','Material: S235JR, Section: ColBox',$,$,#74,$,$);
#65=IFCRELCONTAINEDINSPATIALSTRUCTURE('186GBMJ29BJv5co52uz0we',$,$,$,(#64),#4);
#66=IFCCARTESIANPOINT((5.,0.,1.));
#67=IFCDIRECTION((0.,1.,0.));
#68=IFCDIRECTION((-1.,0.,0.));
#69=IFCAXIS2PLACEMENT3D(#66,#67,#68);
#70=IFCDIRECTION((0.,0.,1.));
#71=IFCRECTANGLEHOLLOWPROFILEDEF(.AREA.,'ColBox',#47,0.20000000000000001,0.20000000000000001,0.0080000000000000002,$,$);
#72=IFCEXTRUDEDAREASOLID(#71,#69,#70,3.);
#73=IFCSHAPEREPRESENTATION(#1,'Body','SweptSolid',(#72));
#74=IFCPRODUCTDEFINITIONSHAPE($,$,(#73));
#75=IFCBEAM('0hA95tFxnB_wDAvXKCd62W',$,'girder_1','Material: S235JR, Section: HE200B_Girder',$,$,#85,$,$);
#76=IFCRELCONTAINEDINSPATIALSTRUCTURE('3LSwsEueD75emgmFN0vXR$',$,$,$,(#75),#4);
#77=IFCCARTESIANPOINT((5.,3.,-1.));
#78=IFCDIRECTION((0.,0.,1.));
#79=IFCDIRECTION((1.,0.,0.));
#80=IFCAXIS2PLACEMENT3D(#77,#78,#79);
#81=IFCDIRECTION((0.,0.,1.));
#82=IFCISHAPEPROFILEDEF(.AREA.,'HE200B_Girder',#47,0.20000000000000001,0.20000000000000001,0.0090000000000000011,0.014999999999999999,0.018000000000000002,$,$);
#83=IFCEXTRUDEDAREASOLID(#82,#80,#81,2.);
#84=IFCSHAPEREPRESENTATION(#1,'Body','SweptSolid',(#83));
#85=IFCPRODUCTDEFINITIONSHAPE($,$,(#84));
#86=IFCMECHANICALFASTENER('1zClC17xH0y99VmLfvMj1I',$,'Support_N0_0','Type: anchor',$,$,#91,$,$,$,$);
#87=IFCRELCONTAINEDINSPATIALSTRUCTURE('0CiVOzX1L2TPZuk0O9mCzw',$,$,$,(#86),#4);
#88=IFCCARTESIANPOINT((5.,0.,-1.));
#89=IFCBOUNDINGBOX(#88,0.20000000000000001,0.20000000000000001,0.20000000000000001);
#90=IFCSHAPEREPRESENTATION(#1,'Box','BoundingBox',(#89));
#91=IFCPRODUCTDEFINITIONSHAPE($,$,(#90));
#92=IFCPROPERTYSINGLEVALUE('VerticalReaction_N',$,IFCREAL(1311.0899999999999),$);
#93=IFCPROPERTYSINGLEVALUE('LateralReaction_N',$,IFCREAL(45.442799999999998),$);
#94=IFCPROPERTYSINGLEVALUE('AxialReaction_N',$,IFCREAL(2.7825700000000002E-15),$);
#95=IFCPROPERTYSINGLEVALUE('TorsionalMoment_Nm',$,IFCREAL(44.195900000000002),$);
#96=IFCPROPERTYSINGLEVALUE('SupportType',$,IFCLABEL('anchor'),$);
#97=IFCPROPERTYSINGLEVALUE('FrictionCoefficient',$,IFCREAL(0.),$);
#98=IFCPROPERTYSET('25fT1fQLfB8e_MSmlL8Mdn',$,'Pset_TubaSupportForces',$,(#92,#93,#94,#95,#96,#97));
#99=IFCRELDEFINESBYPROPERTIES('3QDIJ1lFn9SxK8JyLub9vN',$,$,$,(#86),#98);
#100=IFCMECHANICALFASTENER('1lvTHaTOT40OFv_aM5Wpcs',$,'Support_N1_1','Type: anchor',$,$,#105,$,$,$,$);
#101=IFCRELCONTAINEDINSPATIALSTRUCTURE('3unVG0DpXDpOyADIU1UlzT',$,$,$,(#100),#4);
#102=IFCCARTESIANPOINT((5.,0.,1.));
#103=IFCBOUNDINGBOX(#102,0.20000000000000001,0.20000000000000001,0.20000000000000001);
#104=IFCSHAPEREPRESENTATION(#1,'Box','BoundingBox',(#103));
#105=IFCPRODUCTDEFINITIONSHAPE($,$,(#104));
#106=IFCPROPERTYSINGLEVALUE('VerticalReaction_N',$,IFCREAL(1311.0899999999999),$);
#107=IFCPROPERTYSINGLEVALUE('LateralReaction_N',$,IFCREAL(-45.442799999999998),$);
#108=IFCPROPERTYSINGLEVALUE('AxialReaction_N',$,IFCREAL(-2.7825700000000002E-15),$);
#109=IFCPROPERTYSINGLEVALUE('TorsionalMoment_Nm',$,IFCREAL(-44.195900000000002),$);
#110=IFCPROPERTYSINGLEVALUE('SupportType',$,IFCLABEL('anchor'),$);
#111=IFCPROPERTYSINGLEVALUE('FrictionCoefficient',$,IFCREAL(0.),$);
#112=IFCPROPERTYSET('2xvixEVMr8jxB_wxKijw8K',$,'Pset_TubaSupportForces',$,(#106,#107,#108,#109,#110,#111));
#113=IFCRELDEFINESBYPROPERTIES('2gww$jdD51rQhIV2_$sYDi',$,$,$,(#100),#112);
#114=IFCMECHANICALFASTENER('0Ygfr87Ez3ygJ4Chpn3hOa',$,'Support_N4_2','Type: anchor',$,$,#119,$,$,$,$);
#115=IFCRELCONTAINEDINSPATIALSTRUCTURE('2MFNgTEdHBExj5CjC$5$tt',$,$,$,(#114),#4);
#116=IFCCARTESIANPOINT((0.,3.1143000000000001,0.));
#117=IFCBOUNDINGBOX(#116,0.20000000000000001,0.20000000000000001,0.20000000000000001);
#118=IFCSHAPEREPRESENTATION(#1,'Box','BoundingBox',(#117));
#119=IFCPRODUCTDEFINITIONSHAPE($,$,(#118));
#120=IFCPROPERTYSINGLEVALUE('VerticalReaction_N',$,IFCREAL(657.08600000000001),$);
#121=IFCPROPERTYSINGLEVALUE('LateralReaction_N',$,IFCREAL(-1.6684500000000001E-11),$);
#122=IFCPROPERTYSINGLEVALUE('AxialReaction_N',$,IFCREAL(-13044.700000000001),$);
#123=IFCPROPERTYSINGLEVALUE('TorsionalMoment_Nm',$,IFCREAL(-1.7240699999999999E-12),$);
#124=IFCPROPERTYSINGLEVALUE('SupportType',$,IFCLABEL('anchor'),$);
#125=IFCPROPERTYSINGLEVALUE('FrictionCoefficient',$,IFCREAL(0.),$);
#126=IFCPROPERTYSET('3AYfyMrrr3FuJwhTaU5L9V',$,'Pset_TubaSupportForces',$,(#120,#121,#122,#123,#124,#125));
#127=IFCRELDEFINESBYPROPERTIES('2gjkfbdcnAXuIHG7U0UYSu',$,$,$,(#114),#126);
#128=IFCMECHANICALFASTENER('3QPYb6GsfDIxsPuxlgSyBg',$,'Support_N6_3','Type: anchor',$,$,#133,$,$,$,$);
#129=IFCRELCONTAINEDINSPATIALSTRUCTURE('2WMJuYYwr5$xuIomsAjoZJ',$,$,$,(#128),#4);
#130=IFCCARTESIANPOINT((10.,3.1143000000000001,0.));
#131=IFCBOUNDINGBOX(#130,0.20000000000000001,0.20000000000000001,0.20000000000000001);
#132=IFCSHAPEREPRESENTATION(#1,'Box','BoundingBox',(#131));
#133=IFCPRODUCTDEFINITIONSHAPE($,$,(#132));
#134=IFCPROPERTYSINGLEVALUE('VerticalReaction_N',$,IFCREAL(657.08600000000001),$);
#135=IFCPROPERTYSINGLEVALUE('LateralReaction_N',$,IFCREAL(-1.54238E-11),$);
#136=IFCPROPERTYSINGLEVALUE('AxialReaction_N',$,IFCREAL(13044.700000000001),$);
#137=IFCPROPERTYSINGLEVALUE('TorsionalMoment_Nm',$,IFCREAL(-1.7009499999999999E-12),$);
#138=IFCPROPERTYSINGLEVALUE('SupportType',$,IFCLABEL('anchor'),$);
#139=IFCPROPERTYSINGLEVALUE('FrictionCoefficient',$,IFCREAL(0.),$);
#140=IFCPROPERTYSET('1KCums9O94h8uWoNO7bj7p',$,'Pset_TubaSupportForces',$,(#134,#135,#136,#137,#138,#139));
#141=IFCRELDEFINESBYPROPERTIES('3UBI2uAeT5sf8ZUOS3SZEO',$,$,$,(#128),#140);
#142=IFCMECHANICALFASTENER('2EDPtTZ1L7WPmxfyr0koRu',$,'Support_N5_4','Type: rest',$,$,#147,$,$,$,$);
#143=IFCRELCONTAINEDINSPATIALSTRUCTURE('3QxQmzoZrAzwiv$58jTRKl',$,$,$,(#142),#4);
#144=IFCCARTESIANPOINT((5.,3.1143000000000001,0.));
#145=IFCBOUNDINGBOX(#144,0.20000000000000001,0.20000000000000001,0.20000000000000001);
#146=IFCSHAPEREPRESENTATION(#1,'Box','BoundingBox',(#145));
#147=IFCPRODUCTDEFINITIONSHAPE($,$,(#146));
#148=IFCPROPERTYSINGLEVALUE('VerticalReaction_N',$,IFCREAL(-262.834),$);
#149=IFCPROPERTYSINGLEVALUE('LateralReaction_N',$,IFCREAL(-1.38055E-11),$);
#150=IFCPROPERTYSINGLEVALUE('AxialReaction_N',$,IFCREAL(6.1845600000000005E-11),$);
#151=IFCPROPERTYSINGLEVALUE('TorsionalMoment_Nm',$,IFCREAL(3.05984E-12),$);
#152=IFCPROPERTYSINGLEVALUE('SupportType',$,IFCLABEL('rest'),$);
#153=IFCPROPERTYSINGLEVALUE('FrictionCoefficient',$,IFCREAL(0.29999999999999999),$);
#154=IFCPROPERTYSET('2fimNwe6L6YhZqEh1wxWZL',$,'Pset_TubaSupportForces',$,(#148,#149,#150,#151,#152,#153));
#155=IFCRELDEFINESBYPROPERTIES('3ylmnsCcr8Mfzp4u3i0UIL',$,$,$,(#142),#154);
#156=IFCBUILDINGELEMENTPROXY('3DOJXwP$r80vncdzKGUghs',$,'EquipmentDuct_01','Obstacle type: cuboid',$,$,#161,$,$);
#157=IFCRELCONTAINEDINSPATIALSTRUCTURE('211QA23vDFPx9dt7cIKxd_',$,$,$,(#156),#4);
#158=IFCCARTESIANPOINT((2.,1.,0.20000000000000001));
#159=IFCBOUNDINGBOX(#158,2.,1.5,1.3);
#160=IFCSHAPEREPRESENTATION(#1,'Box','BoundingBox',(#159));
#161=IFCPRODUCTDEFINITIONSHAPE($,$,(#160));
#162=IFCPROPERTYSINGLEVALUE('SustainedStressRatio',$,IFCREAL(0.25481098343635983),$);
#163=IFCPROPERTYSINGLEVALUE('ExpansionStressRatio',$,IFCREAL(0.092972043032068144),$);
#164=IFCPROPERTYSINGLEVALUE('ComplianceVerdict',$,IFCLABEL('PASS'),$);
#165=IFCPROPERTYSINGLEVALUE('MaxStress_Pa',$,IFCREAL(30577318.012363181),$);
#166=IFCPROPERTYSET('1ZbN$JOtn8dePxv$rtSxj7',$,'Pset_TubaStressAnalysis',$,(#162,#163,#164,#165));
#167=IFCRELDEFINESBYPROPERTIES('1utXl2RXz6MATBFGNJm_Y2',$,$,$,(#8),#166);
#168=IFCPROPERTYSINGLEVALUE('SustainedStressRatio',$,IFCREAL(0.25481082524107157),$);
#169=IFCPROPERTYSINGLEVALUE('ExpansionStressRatio',$,IFCREAL(0.092971948704442808),$);
#170=IFCPROPERTYSINGLEVALUE('ComplianceVerdict',$,IFCLABEL('PASS'),$);
#171=IFCPROPERTYSINGLEVALUE('MaxStress_Pa',$,IFCREAL(30577299.028928585),$);
#172=IFCPROPERTYSET('0UON6r$QHFjQs$kSL_xSzz',$,'Pset_TubaStressAnalysis',$,(#168,#169,#170,#171));
#173=IFCRELDEFINESBYPROPERTIES('20Ijng1Bv5UAyiVkAcgp9v',$,$,$,(#8),#172);
#174=IFCPROPERTYSINGLEVALUE('SustainedStressRatio',$,IFCREAL(0.25481082524107157),$);
#175=IFCPROPERTYSINGLEVALUE('ExpansionStressRatio',$,IFCREAL(0.092971948704442808),$);
#176=IFCPROPERTYSINGLEVALUE('ComplianceVerdict',$,IFCLABEL('PASS'),$);
#177=IFCPROPERTYSINGLEVALUE('MaxStress_Pa',$,IFCREAL(30577299.028928585),$);
#178=IFCPROPERTYSET('2qCK3OD9f4u8unncbnBXG8',$,'Pset_TubaStressAnalysis',$,(#174,#175,#176,#177));
#179=IFCRELDEFINESBYPROPERTIES('1tyRXViEr7kB9Ogb09WJDE',$,$,$,(#25),#178);
#180=IFCPROPERTYSINGLEVALUE('SustainedStressRatio',$,IFCREAL(0.25481098343635983),$);
#181=IFCPROPERTYSINGLEVALUE('ExpansionStressRatio',$,IFCREAL(0.092972043032068144),$);
#182=IFCPROPERTYSINGLEVALUE('ComplianceVerdict',$,IFCLABEL('PASS'),$);
#183=IFCPROPERTYSINGLEVALUE('MaxStress_Pa',$,IFCREAL(30577318.012363181),$);
#184=IFCPROPERTYSET('0p8e3ac4f9u919DWd4kHm9',$,'Pset_TubaStressAnalysis',$,(#180,#181,#182,#183));
#185=IFCRELDEFINESBYPROPERTIES('2zBMYdMxT2$Pqtxa6ZmUOm',$,$,$,(#25),#184);
ENDSEC;
END-ISO-10303-21;
