ISO-10303-21;
HEADER;
FILE_DESCRIPTION(('ViewDefinition [CoordinationView]'),'2;1');
FILE_NAME('','2026-07-01T11:22:50',(''),(''),'IfcOpenShell 0.8.5-1c5b825','IfcOpenShell 0.8.5-1c5b825','');
FILE_SCHEMA(('IFC4'));
ENDSEC;
DATA;
#1=IFCPROJECT('2yFkdi91128OL9lQW3ihTA',$,'BIM_Demo',$,$,$,$,$,$);
#2=IFCSITE('3CZsdvLzz38fCgaUhj94PB',$,'Tuba Site',$,$,$,$,$,$,$,$,$,$,$);
#3=IFCBUILDING('2C3X9Do$HCRfp5KNO5BTaR',$,'Tuba Plant Section',$,$,$,$,$,$,$,$,$);
#4=IFCBUILDINGSTOREY('3QZ9ZjyGzFaeFYPijU32eS',$,'Ground Floor Level',$,$,$,$,$,$,$);
#5=IFCRELAGGREGATES('0ldElho8z0xBrTl1AJpolc',$,$,$,#1,(#2));
#6=IFCRELAGGREGATES('2vQ59X5o191vge6OiWkpA0',$,$,$,#2,(#3));
#7=IFCRELAGGREGATES('2Polu0bd1FoAS3MhtrliPu',$,$,$,#3,(#4));
#8=IFCPIPESEGMENT('04U0_zLwPO0gZaMN9473CR',$,'pipe_str_0','Material: Steel, Section: DN100',$,#13,#29,$,$);
#9=IFCCARTESIANPOINT((0.,0.,0.));
#10=IFCDIRECTION((0.,0.,1.));
#11=IFCDIRECTION((1.,0.,0.));
#12=IFCAXIS2PLACEMENT3D(#9,#10,#11);
#13=IFCLOCALPLACEMENT($,#12);
#14=IFCPROPERTYSINGLEVALUE('SectionName',$,IFCLABEL('DN100'),$);
#15=IFCPROPERTYSINGLEVALUE('MaterialName',$,IFCLABEL('Steel'),$);
#16=IFCPROPERTYSINGLEVALUE('OuterDiameterM',$,IFCREAL(0.1143),$);
#17=IFCPROPERTYSINGLEVALUE('WallThicknessM',$,IFCREAL(0.0060000000000000001),$);
#18=IFCPROPERTYSET('32_G5Vgm10q816Pwlc1U6R',$,'Pset_TubaPipe',$,(#14,#15,#16,#17));
#19=IFCRELDEFINESBYPROPERTIES('0phZt6W7v9s99gITcqhWEm',$,$,$,(#8),#18);
#20=IFCCARTESIANPOINT((0.,0.,0.));
#21=IFCCARTESIANPOINT((3.,0.,0.));
#22=IFCPOLYLINE((#20,#21));
#23=IFCSWEPTDISKSOLID(#22,0.057149999999999999,0.051150000000000001,$,$);
#24=IFCCARTESIANPOINT((0.,0.,0.));
#25=IFCCARTESIANPOINT((3.,0.,0.));
#26=IFCPOLYLINE((#24,#25));
#27=IFCSHAPEREPRESENTATION(#1,'Axis','Curve3D',(#26));
#28=IFCSHAPEREPRESENTATION(#1,'Body','SweptSolid',(#23));
#29=IFCPRODUCTDEFINITIONSHAPE($,$,(#27,#28));
#30=IFCPIPEFITTING('1Ww93hPgZuu8rxMc_HHoKx',$,'pipe_bend_0','Material: Steel, Section: DN100',$,$,#60,$,.BEND.);
#31=IFCPROPERTYSINGLEVALUE('SectionName',$,IFCLABEL('DN100'),$);
#32=IFCPROPERTYSINGLEVALUE('MaterialName',$,IFCLABEL('Steel'),$);
#33=IFCPROPERTYSINGLEVALUE('OuterDiameterM',$,IFCREAL(0.1143),$);
#34=IFCPROPERTYSINGLEVALUE('WallThicknessM',$,IFCREAL(0.0060000000000000001),$);
#35=IFCPROPERTYSET('2vuaQ4u6zBzviPaojNuF14',$,'Pset_TubaPipe',$,(#31,#32,#33,#34));
#36=IFCRELDEFINESBYPROPERTIES('2z3wTMNJX1hAtjefGIMvxe',$,$,$,(#30),#35);
#37=IFCCARTESIANPOINT((3.,0.,0.));
#38=IFCCARTESIANPOINT((3.0390180644032259,0.0038429439193539139,0.));
#39=IFCCARTESIANPOINT((3.0765366864730179,0.015224093497742647,0.));
#40=IFCCARTESIANPOINT((3.1111140466039204,0.033706077539490953,0.));
#41=IFCCARTESIANPOINT((3.1414213562373097,0.05857864376269048,0.));
#42=IFCCARTESIANPOINT((3.1662939224605089,0.088885953396079548,0.));
#43=IFCCARTESIANPOINT((3.1847759065022574,0.12346331352698203,0.));
#44=IFCCARTESIANPOINT((3.1961570560806463,0.16098193559677434,0.));
#45=IFCCARTESIANPOINT((3.2000000000000002,0.20000000000000001,0.));
#46=IFCPOLYLINE((#37,#38,#39,#40,#41,#42,#43,#44,#45));
#47=IFCSWEPTDISKSOLID(#46,0.057149999999999999,0.051150000000000001,$,$);
#48=IFCCARTESIANPOINT((3.,0.,0.));
#49=IFCCARTESIANPOINT((3.0390180644032259,0.0038429439193539139,0.));
#50=IFCCARTESIANPOINT((3.0765366864730179,0.015224093497742647,0.));
#51=IFCCARTESIANPOINT((3.1111140466039204,0.033706077539490953,0.));
#52=IFCCARTESIANPOINT((3.1414213562373097,0.05857864376269048,0.));
#53=IFCCARTESIANPOINT((3.1662939224605089,0.088885953396079548,0.));
#54=IFCCARTESIANPOINT((3.1847759065022574,0.12346331352698203,0.));
#55=IFCCARTESIANPOINT((3.1961570560806463,0.16098193559677434,0.));
#56=IFCCARTESIANPOINT((3.2000000000000002,0.20000000000000001,0.));
#57=IFCPOLYLINE((#48,#49,#50,#51,#52,#53,#54,#55,#56));
#58=IFCSHAPEREPRESENTATION(#1,'Axis','Curve3D',(#57));
#59=IFCSHAPEREPRESENTATION(#1,'Body','SweptSolid',(#47));
#60=IFCPRODUCTDEFINITIONSHAPE($,$,(#58,#59));
#61=IFCPROPERTYSINGLEVALUE('BendRadiusM',$,IFCREAL(0.20000000000000001),$);
#62=IFCPROPERTYSINGLEVALUE('BendAngleDeg',$,IFCREAL(90.),$);
#63=IFCPROPERTYSET('2$OhHOaLv1qgdwNvQi4lp_',$,'Pset_TubaPipeBend',$,(#61,#62));
#64=IFCRELDEFINESBYPROPERTIES('1oq5ZFnsfDlgiOXAUgHyvI',$,$,$,(#30),#63);
#65=IFCPIPESEGMENT('10elvg6oBdQRu6kDpDt_S2',$,'pipe_str_1','Material: Steel, Section: DN100',$,$,#81,$,$);
#66=IFCPROPERTYSINGLEVALUE('SectionName',$,IFCLABEL('DN100'),$);
#67=IFCPROPERTYSINGLEVALUE('MaterialName',$,IFCLABEL('Steel'),$);
#68=IFCPROPERTYSINGLEVALUE('OuterDiameterM',$,IFCREAL(0.1143),$);
#69=IFCPROPERTYSINGLEVALUE('WallThicknessM',$,IFCREAL(0.0060000000000000001),$);
#70=IFCPROPERTYSET('1OxMRaHMzEBw2rObqUEhVy',$,'Pset_TubaPipe',$,(#66,#67,#68,#69));
#71=IFCRELDEFINESBYPROPERTIES('0f$kHMUPr8Tx1Qg7ALF4Ja',$,$,$,(#65),#70);
#72=IFCCARTESIANPOINT((3.2000000000000002,0.19999999999999998,0.));
#73=IFCCARTESIANPOINT((3.2000000000000006,2.2000000000000002,0.));
#74=IFCPOLYLINE((#72,#73));
#75=IFCSWEPTDISKSOLID(#74,0.057149999999999999,0.051150000000000001,$,$);
#76=IFCCARTESIANPOINT((3.2000000000000002,0.19999999999999998,0.));
#77=IFCCARTESIANPOINT((3.2000000000000006,2.2000000000000002,0.));
#78=IFCPOLYLINE((#76,#77));
#79=IFCSHAPEREPRESENTATION(#1,'Axis','Curve3D',(#78));
#80=IFCSHAPEREPRESENTATION(#1,'Body','SweptSolid',(#75));
#81=IFCPRODUCTDEFINITIONSHAPE($,$,(#79,#80));
#82=IFCRELCONTAINEDINSPATIALSTRUCTURE('1Z85He$YbFp8Hy2iVZgIvD',$,$,$,(#8,#30,#65),#4);
#83=IFCDISTRIBUTIONSYSTEM('0lVoKGhvaZSZWmLob5$fpx',$,'BIM_Demo',$,$,$,.NOTDEFINED.);
#84=IFCRELASSIGNSTOGROUP('1raXymU$X6oBePh2w4QuAM',$,'BIM_Demo pipe run',$,(#8,#30,#65),$,#83);
#85=IFCRELSERVICESBUILDINGS('2vUO34QkPEfOBIR8JGMUqz',$,'BIM_Demo services',$,#83,(#4));
#86=IFCCARTESIANPOINT((0.,0.));
#87=IFCAXIS2PLACEMENT2D(#86,$);
#88=IFCMECHANICALFASTENER('3d7d2FzDjCxR6zyh7IV5yN',$,'Support_N0_0','Type: anchor',$,$,#93,$,$,$,$);
#89=IFCRELCONTAINEDINSPATIALSTRUCTURE('3hUD7Znsb4ZwRPQbvkMvIk',$,$,$,(#88),#4);
#90=IFCCARTESIANPOINT((0.,0.,0.));
#91=IFCBOUNDINGBOX(#90,0.20000000000000001,0.20000000000000001,0.20000000000000001);
#92=IFCSHAPEREPRESENTATION(#1,'Box','BoundingBox',(#91));
#93=IFCPRODUCTDEFINITIONSHAPE($,$,(#92));
#94=IFCPROPERTYSINGLEVALUE('VerticalReaction_N',$,IFCREAL(1476.6400000000001),$);
#95=IFCPROPERTYSINGLEVALUE('LateralReaction_N',$,IFCREAL(-1.8910999999999998E-09),$);
#96=IFCPROPERTYSINGLEVALUE('AxialReaction_N',$,IFCREAL(2361.3299999999999),$);
#97=IFCPROPERTYSINGLEVALUE('TorsionalMoment_Nm',$,IFCREAL(5.5787399999999999E-10),$);
#98=IFCPROPERTYSINGLEVALUE('SupportType',$,IFCLABEL('anchor'),$);
#99=IFCPROPERTYSINGLEVALUE('FrictionCoefficient',$,IFCREAL(0.),$);
#100=IFCPROPERTYSET('0FI7hi_nDBvvwTJsBesahA',$,'Pset_TubaSupportForces',$,(#94,#95,#96,#97,#98,#99));
#101=IFCRELDEFINESBYPROPERTIES('149lO8Q_X1PPayP_CBwsBT',$,$,$,(#88),#100);
#102=IFCMECHANICALFASTENER('3ZhfcyB$13uQB_6DeSMnhi',$,'Support_N3_1','Type: anchor',$,$,#107,$,$,$,$);
#103=IFCRELCONTAINEDINSPATIALSTRUCTURE('3fJXu44dr83ut3SzYGAGGA',$,$,$,(#102),#4);
#104=IFCCARTESIANPOINT((3.2000000000000006,2.2000000000000002,0.));
#105=IFCBOUNDINGBOX(#104,0.20000000000000001,0.20000000000000001,0.20000000000000001);
#106=IFCSHAPEREPRESENTATION(#1,'Box','BoundingBox',(#105));
#107=IFCPRODUCTDEFINITIONSHAPE($,$,(#106));
#108=IFCPROPERTYSINGLEVALUE('VerticalReaction_N',$,IFCREAL(-772.25099999999998),$);
#109=IFCPROPERTYSINGLEVALUE('LateralReaction_N',$,IFCREAL(-2.1893800000000001E-09),$);
#110=IFCPROPERTYSINGLEVALUE('AxialReaction_N',$,IFCREAL(-2361.3299999999999),$);
#111=IFCPROPERTYSINGLEVALUE('TorsionalMoment_Nm',$,IFCREAL(3.3929300000000002E-09),$);
#112=IFCPROPERTYSINGLEVALUE('SupportType',$,IFCLABEL('anchor'),$);
#113=IFCPROPERTYSINGLEVALUE('FrictionCoefficient',$,IFCREAL(0.),$);
#114=IFCPROPERTYSET('3gs$8Q_OfBZvzyO6tmM6zi',$,'Pset_TubaSupportForces',$,(#108,#109,#110,#111,#112,#113));
#115=IFCRELDEFINESBYPROPERTIES('0Uyl_2nkj3Be5yxC_eJkPS',$,$,$,(#102),#114);
#116=IFCPROPERTYSINGLEVALUE('SustainedStressRatio',$,IFCREAL(0.33147463314525294),$);
#117=IFCPROPERTYSINGLEVALUE('ExpansionStressRatio',$,IFCREAL(0.16625735342136541),$);
#118=IFCPROPERTYSINGLEVALUE('ComplianceVerdict',$,IFCLABEL('PASS'),$);
#119=IFCPROPERTYSINGLEVALUE('MaxStress_Pa',$,IFCREAL(41434329.143156618),$);
#120=IFCPROPERTYSET('0GPUu8iIf6owNoh3uHVSjg',$,'Pset_TubaStressAnalysis',$,(#116,#117,#118,#119));
#121=IFCRELDEFINESBYPROPERTIES('0yS7aZrJvBMxpk7GLo9Nhu',$,$,$,(#8),#120);
#122=IFCPROPERTYSINGLEVALUE('SustainedStressRatio',$,IFCREAL(0.38564662851309722),$);
#123=IFCPROPERTYSINGLEVALUE('ExpansionStressRatio',$,IFCREAL(0.19908886576551346),$);
#124=IFCPROPERTYSINGLEVALUE('ComplianceVerdict',$,IFCLABEL('PASS'),$);
#125=IFCPROPERTYSINGLEVALUE('MaxStress_Pa',$,IFCREAL(48205828.564137153),$);
#126=IFCPROPERTYSET('3jfiHVGoHF8O5aGIkAndoy',$,'Pset_TubaStressAnalysis',$,(#122,#123,#124,#125));
#127=IFCRELDEFINESBYPROPERTIES('0qGInMvc58fBw0$PZ3nnHC',$,$,$,(#8),#126);
#128=IFCPROPERTYSINGLEVALUE('SustainedStressRatio',$,IFCREAL(0.56418628430176299),$);
#129=IFCPROPERTYSINGLEVALUE('ExpansionStressRatio',$,IFCREAL(0.3072947177586442),$);
#130=IFCPROPERTYSINGLEVALUE('ComplianceVerdict',$,IFCLABEL('PASS'),$);
#131=IFCPROPERTYSINGLEVALUE('MaxStress_Pa',$,IFCREAL(70523285.537720367),$);
#132=IFCPROPERTYSET('3Goz$QXl1FhwATB_28Suhy',$,'Pset_TubaStressAnalysis',$,(#128,#129,#130,#131));
#133=IFCRELDEFINESBYPROPERTIES('1Q2wxgTwvAxBS10n15daq6',$,$,$,(#30),#132);
#134=IFCPROPERTYSINGLEVALUE('SustainedStressRatio',$,IFCREAL(0.49975213785987616),$);
#135=IFCPROPERTYSINGLEVALUE('ExpansionStressRatio',$,IFCREAL(0.26824371991507645),$);
#136=IFCPROPERTYSINGLEVALUE('ComplianceVerdict',$,IFCLABEL('PASS'),$);
#137=IFCPROPERTYSINGLEVALUE('MaxStress_Pa',$,IFCREAL(62469017.232484519),$);
#138=IFCPROPERTYSET('2THRTTTnT2ku5cgVTC0D7O',$,'Pset_TubaStressAnalysis',$,(#134,#135,#136,#137));
#139=IFCRELDEFINESBYPROPERTIES('0uETcHOxDAOAyOdOHZ7cnS',$,$,$,(#30),#138);
#140=IFCPROPERTYSINGLEVALUE('SustainedStressRatio',$,IFCREAL(0.3282277552356006),$);
#141=IFCPROPERTYSINGLEVALUE('ExpansionStressRatio',$,IFCREAL(0.16428954862763673),$);
#142=IFCPROPERTYSINGLEVALUE('ComplianceVerdict',$,IFCLABEL('PASS'),$);
#143=IFCPROPERTYSINGLEVALUE('MaxStress_Pa',$,IFCREAL(41028469.404450074),$);
#144=IFCPROPERTYSET('006kx1HVf3MAZjM1XoNHXW',$,'Pset_TubaStressAnalysis',$,(#140,#141,#142,#143));
#145=IFCRELDEFINESBYPROPERTIES('3vr8eTpJf7huckA4kfHXPN',$,$,$,(#65),#144);
#146=IFCPROPERTYSINGLEVALUE('SustainedStressRatio',$,IFCREAL(0.50529834367616322),$);
#147=IFCPROPERTYSINGLEVALUE('ExpansionStressRatio',$,IFCREAL(0.27160505677343227),$);
#148=IFCPROPERTYSINGLEVALUE('ComplianceVerdict',$,IFCLABEL('PASS'),$);
#149=IFCPROPERTYSINGLEVALUE('MaxStress_Pa',$,IFCREAL(63162292.959520407),$);
#150=IFCPROPERTYSET('2OvlaHhvv1YRZwh8CyHd_K',$,'Pset_TubaStressAnalysis',$,(#146,#147,#148,#149));
#151=IFCRELDEFINESBYPROPERTIES('007lzIO9PARuFY35ruSS$u',$,$,$,(#65),#150);
ENDSEC;
END-ISO-10303-21;
